<svg width="24" height="24" viewBox="0 0 24 24" fill="none" xmlns="http://www.w3.org/2000/svg">
<g clip-path="url(#clip0_4_313)">
<path d="M7.5 17C7.77615 17 8 16.7761 8 16.5L8 2L23 2L23 16.5C23 16.7761 23.2239 17 23.5 17C23.7762 17 24 16.7761 24 16.5L24 1.5C24 1.22385 23.7761 1 23.5 1L7.5 1C7.22385 1 7 1.22385 7 1.5L7 16.5C7 16.7761 7.22385 17 7.5 17Z" fill="#EB5757"/>
<path d="M0.500001 17C0.776151 17 1 16.7761 1 16.5L1 11.6328L2.79015 8.5L7.5 8.5C7.77615 8.5 8 8.27615 8 8C8 7.72385 7.77615 7.5 7.5 7.5L2.5 7.5C2.3206 7.5 2.1549 7.59615 2.06585 7.75195L0.0658496 11.252C0.0226997 11.3275 3.42085e-07 11.413 3.49691e-07 11.5L7.86805e-07 16.5C8.10942e-07 16.7761 0.223851 17 0.500001 17Z" fill="#EB5757"/>
<path d="M0.5 21L3 21C3.27615 21 3.5 20.7761 3.5 20.5C3.5 20.2239 3.27615 20 3 20L1 20L1 17L23 17L23 20L21 20C20.7239 20 20.5 20.2239 20.5 20.5C20.5 20.7761 20.7239 21 21 21L23.5 21C23.7762 21 24 20.7761 24 20.5L24 16.5C24 16.2239 23.7761 16 23.5 16L0.5 16C0.22385 16 1.9574e-08 16.2239 4.37114e-08 16.5L3.93403e-07 20.5C4.1754e-07 20.7761 0.223851 21 0.5 21Z" fill="#EB5757"/>
<path d="M7 21L17 21C17.2762 21 17.5 20.7761 17.5 20.5C17.5 20.2239 17.2761 20 17 20L7 20C6.72385 20 6.5 20.2239 6.5 20.5C6.5 20.7761 6.72385 21 7 21Z" fill="#EB5757"/>
<path d="M19 23C20.3785 23 21.5 21.8785 21.5 20.5C21.5 19.1215 20.3785 18 19 18C17.6215 18 16.5 19.1215 16.5 20.5C16.5 21.8785 17.6215 23 19 23ZM19 19C19.8271 19 20.5 19.6729 20.5 20.5C20.5 21.3271 19.8271 22 19 22C18.1729 22 17.5 21.3271 17.5 20.5C17.5 19.6729 18.1729 19 19 19Z" fill="#EB5757"/>
<path d="M18.9998 21C18.7235 21 18.4995 20.7761 18.4995 20.5C18.4995 20.2239 18.7235 20 18.9998 20C19.276 20 19.5 20.2239 19.5 20.5C19.5 20.7761 19.276 21 18.9998 21Z" fill="#EB5757"/>
<path d="M18.9998 21.025C19.2894 21.025 19.525 20.7895 19.525 20.5C19.525 20.2105 19.2894 19.975 18.9998 19.975C18.7101 19.975 18.4745 20.2105 18.4745 20.5C18.4745 20.7895 18.7101 21.025 18.9998 21.025ZM18.9998 20.025C19.2618 20.025 19.475 20.2381 19.475 20.5C19.475 20.7619 19.2618 20.975 18.9998 20.975C18.7378 20.975 18.5245 20.7619 18.5245 20.5C18.5245 20.2381 18.7378 20.025 18.9998 20.025Z" fill="#EB5757"/>
<path d="M4.99976 21C4.72349 21 4.49952 20.7761 4.49952 20.5C4.49952 20.2239 4.72349 20 4.99976 20C5.27604 20 5.5 20.2239 5.5 20.5C5.5 20.7761 5.27604 21 4.99976 21Z" fill="#EB5757"/>
<path d="M4.99977 21.025C5.28941 21.025 5.52502 20.7895 5.52502 20.5C5.52502 20.2105 5.28941 19.975 4.99977 19.975C4.71014 19.975 4.47452 20.2105 4.47452 20.5C4.47452 20.7895 4.71014 21.025 4.99977 21.025ZM4.99977 20.025C5.2618 20.025 5.475 20.2381 5.475 20.5C5.475 20.7619 5.2618 20.975 4.99977 20.975C4.73775 20.975 4.52455 20.7619 4.52455 20.5C4.52455 20.2381 4.73775 20.025 4.99977 20.025Z" fill="#EB5757"/>
<path d="M5 23C6.3785 23 7.5 21.8785 7.5 20.5C7.5 19.1215 6.3785 18 5 18C3.6215 18 2.5 19.1215 2.5 20.5C2.5 21.8785 3.6215 23 5 23ZM5 19C5.8271 19 6.5 19.6729 6.5 20.5C6.5 21.3271 5.8271 22 5 22C4.1729 22 3.5 21.3271 3.5 20.5C3.5 19.6729 4.1729 19 5 19ZM0.500001 12L6 12C6.15735 12 6.30555 11.9259 6.4 11.8L7.9 9.8C8.06565 9.5791 8.0209 9.26565 7.8 9.1C7.57905 8.9343 7.26565 8.9791 7.1 9.2L5.75 11L0.500001 11C0.223851 11 6.31533e-07 11.2239 6.55671e-07 11.5C6.79808e-07 11.7761 0.223851 12 0.500001 12ZM7.5 5L23.5 5C23.7762 5 24 4.77615 24 4.5C24 4.22385 23.7761 4 23.5 4L7.5 4C7.22385 4 7 4.22385 7 4.5C7 4.77615 7.22385 5 7.5 5ZM7.5 8L23.5 8C23.7762 8 24 7.77615 24 7.5C24 7.22385 23.7762 7 23.5 7L7.5 7C7.22385 7 7 7.22385 7 7.5C7 7.77615 7.22385 8 7.5 8Z" fill="#EB5757"/>
<path d="M7.5 11L23.5 11C23.7762 11 24 10.7761 24 10.5C24 10.2239 23.7761 10 23.5 10L7.5 10C7.22385 10 7 10.2239 7 10.5C7 10.7762 7.22385 11 7.5 11Z" fill="#EB5757"/>
<path d="M7.5 14L23.5 14C23.7762 14 24 13.7761 24 13.5C24 13.2239 23.7761 13 23.5 13L7.5 13C7.22385 13 7 13.2239 7 13.5C7 13.7761 7.22385 14 7.5 14Z" fill="#EB5757"/>
</g>
<defs>
<clipPath id="clip0_4_313">
<rect width="24" height="24" fill="white" transform="matrix(-1 8.74228e-08 8.74228e-08 1 24 0)"/>
</clipPath>
</defs>
</svg>
