<svg width="24" height="24" viewBox="0 0 24 24" fill="none" xmlns="http://www.w3.org/2000/svg">
<path fill-rule="evenodd" clip-rule="evenodd" d="M2.71945 17.0852C2.70642 17.1797 2.69954 17.2765 2.69954 17.3747C2.69954 18.5267 3.63647 19.4619 4.79033 19.4619C5.94401 19.4619 6.88094 18.5267 6.88094 17.3747C6.88094 17.2554 6.87089 17.1384 6.85173 17.0247C6.81749 16.8221 6.95405 16.6299 7.15647 16.5957C7.35908 16.5615 7.55126 16.698 7.58549 16.9006C7.61154 17.0547 7.62512 17.213 7.62512 17.3747C7.62512 18.9373 6.35498 20.2061 4.79033 20.2061C3.22549 20.2061 1.95535 18.9373 1.95535 17.3747C1.95535 17.2417 1.96466 17.1107 1.98252 16.9827C2.0108 16.7792 2.19889 16.637 2.40224 16.6653C2.60559 16.6936 2.74773 16.8817 2.71945 17.0852Z" fill="#27AE60"/>
<path fill-rule="evenodd" clip-rule="evenodd" d="M4.28729 17.1278C4.25045 17.2022 4.2298 17.2859 4.2298 17.3747C4.2298 17.6833 4.48115 17.9339 4.79036 17.9339C5.09957 17.9339 5.35092 17.6833 5.35092 17.3747C5.35092 17.274 5.32431 17.1795 5.27743 17.098C5.17547 16.9198 5.23724 16.6923 5.41547 16.5903C5.59352 16.4882 5.82105 16.5499 5.92319 16.7282C6.0324 16.9187 6.0951 17.1393 6.0951 17.3747C6.0951 18.0939 5.51054 18.6781 4.79036 18.6781C4.07017 18.6781 3.48561 18.0939 3.48561 17.3747C3.48561 17.1674 3.53417 16.9715 3.62031 16.7976C3.71147 16.6134 3.93492 16.538 4.11892 16.6292C4.30292 16.7203 4.37845 16.9438 4.28729 17.1278ZM19.0776 17.1016C19.0545 17.2225 19.0425 17.3475 19.0425 17.4753C19.0425 18.5719 19.9342 19.4619 21.0322 19.4619C22.1305 19.4619 23.0222 18.5719 23.0222 17.4753C23.0222 16.7047 22.5816 16.0361 21.9388 15.7066C21.7559 15.6128 21.6838 15.3884 21.7773 15.2057C21.8711 15.0229 22.0955 14.9507 22.2782 15.0443C23.1617 15.4971 23.7664 16.4163 23.7664 17.4753C23.7664 18.9823 22.5414 20.2061 21.0322 20.2061C19.5232 20.2061 18.2983 18.9823 18.2983 17.4753C18.2983 17.2999 18.3148 17.1282 18.3466 16.962C18.3851 16.7602 18.5801 16.6277 18.7818 16.6662C18.9835 16.7047 19.1161 16.8997 19.0776 17.1016Z" fill="#27AE60"/>
<path fill-rule="evenodd" clip-rule="evenodd" d="M21.0322 16.2101C21.7314 16.2101 22.2988 16.7772 22.2988 17.4754C22.2988 18.1736 21.7314 18.7407 21.0322 18.7407C20.3331 18.7407 19.7658 18.1736 19.7658 17.4754C19.7658 16.7772 20.3331 16.2101 21.0322 16.2101ZM21.0322 16.9543C20.7442 16.9543 20.51 17.1876 20.51 17.4754C20.51 17.763 20.7442 17.9965 21.0322 17.9965C21.3204 17.9965 21.5546 17.763 21.5546 17.4754C21.5546 17.1876 21.3204 16.9543 21.0322 16.9543Z" fill="#27AE60"/>
<path fill-rule="evenodd" clip-rule="evenodd" d="M17.2821 16.5083C17.2823 16.5061 17.2825 16.5041 17.2828 16.502C17.5065 14.7697 19.0627 13.2058 20.8291 13.1874C22.0523 13.1747 23.136 13.7863 23.7738 14.721C23.7746 14.7219 23.7751 14.7228 23.7759 14.7238C23.8992 14.9085 23.9461 15.2146 23.8838 15.4267C23.8088 15.6815 23.6248 15.8347 23.3561 15.8244C22.6361 15.7965 21.9372 15.6414 21.3286 15.6268C20.8525 15.6157 20.4376 15.6918 20.1576 16.1096C19.752 16.7145 19.2661 17.1041 18.8423 17.3003C18.7933 17.323 18.74 17.3347 18.686 17.3347C18.686 17.3347 18.3186 17.3347 18.0149 17.3312C17.8053 17.3303 17.6058 17.2406 17.4659 17.0843C17.3254 16.9271 17.2586 16.7176 17.2821 16.5083ZM18.0222 16.587C18.2322 16.5894 18.4739 16.5902 18.5997 16.5906C18.9094 16.4285 19.2479 16.1299 19.5396 15.6951C19.9775 15.0417 20.6017 14.8654 21.3463 14.8828C21.8789 14.8955 22.4804 15.0149 23.1046 15.0639C22.5948 14.3695 21.7669 13.9219 20.8369 13.9316C19.4294 13.9461 18.2056 15.2073 18.0222 16.587ZM3.08116 11.265C3.08116 11.265 3.3632 10.5234 3.55837 10.0099C3.72302 9.57679 4.13828 9.29028 4.60172 9.29028C5.61065 9.29028 7.87167 9.29028 9.2233 9.29028C9.59037 9.29028 9.934 9.47075 10.1424 9.77289C10.3506 10.075 10.3973 10.4603 10.2668 10.8034L9.82386 11.9681C9.75093 12.1601 9.53586 12.2566 9.34386 12.1837C9.15186 12.1106 9.0553 11.8955 9.12823 11.7035L9.57121 10.5388C9.61455 10.4244 9.59911 10.2961 9.52972 10.1954C9.46014 10.0947 9.34572 10.0345 9.2233 10.0345H4.60172C4.4473 10.0345 4.30888 10.1299 4.254 10.2745L3.77679 11.5294C3.70386 11.7214 3.4886 11.8179 3.29679 11.745C3.10479 11.6721 3.00823 11.457 3.08116 11.265Z" fill="#27AE60"/>
<path fill-rule="evenodd" clip-rule="evenodd" d="M17.7379 16.256C17.2437 16.8781 16.4927 17.2405 15.6984 17.2405C12.6923 17.2405 4.24058 17.2405 1.24876 17.2405C0.883924 17.2405 0.542158 17.0623 0.333414 16.7633C0.12467 16.4641 0.075182 16.082 0.200764 15.7395C0.468857 15.0096 0.840576 13.9972 1.16653 13.1095C1.65062 11.7914 2.90588 10.9151 4.31016 10.9151C5.55872 10.9151 7.13602 10.9151 8.35202 10.9151C8.90793 10.9151 9.42867 11.1866 9.74681 11.6424C10.0649 12.098 10.1403 12.6805 9.94867 13.2022V13.2026C9.84076 13.496 9.88318 13.8236 10.0622 14.08C10.2411 14.3361 10.534 14.4889 10.8465 14.4889C11.8925 14.4889 13.1825 14.4889 14.2117 14.4889C14.5446 14.4889 14.8601 14.3404 15.0722 14.0839C15.2841 13.8273 15.3706 13.4894 15.3081 13.1626C15.0078 11.5961 14.582 9.37447 14.3483 8.15605C14.2856 7.82917 14.3721 7.49131 14.5842 7.23475C14.7963 6.97819 15.1118 6.82973 15.4447 6.82973H16.0417C16.5777 6.82973 17.0378 7.21075 17.1381 7.73707C17.4452 9.24014 18.2205 10.5561 19.0117 11.7134C19.0119 11.7138 19.0123 11.714 19.0125 11.7144C19.6519 12.6567 19.6049 13.9051 18.8968 14.7966C18.5105 15.2833 18.0826 15.8221 17.7379 16.256ZM17.1552 15.7931C17.4997 15.3592 17.9276 14.8208 18.3139 14.3339C18.8197 13.6973 18.8534 12.8055 18.3969 12.1326C17.5526 10.8974 16.7358 9.48833 16.4082 7.882C16.4078 7.88014 16.4075 7.87847 16.4071 7.8768C16.374 7.70098 16.2205 7.57391 16.0415 7.57391H15.4447C15.3338 7.57391 15.2285 7.6234 15.1578 7.7088C15.0871 7.79438 15.0583 7.90693 15.0793 8.01596L16.0389 13.0225C16.1433 13.5672 15.9993 14.1304 15.6458 14.5579C15.2923 14.9854 14.7665 15.2331 14.2117 15.2331C13.1825 15.2331 11.8925 15.2331 10.8465 15.2331C10.2908 15.2331 9.77007 14.9616 9.45193 14.5058C9.13379 14.0502 9.05844 13.4677 9.25007 12.946V12.9456C9.35779 12.6522 9.31537 12.3246 9.13658 12.0684C8.9576 11.8121 8.66476 11.6593 8.35202 11.6593H4.31016C3.21788 11.6593 2.24169 12.3408 1.86514 13.3661C1.53918 14.2535 1.16746 15.2662 0.899366 15.9961C0.857508 16.1101 0.874065 16.2375 0.943645 16.3373C1.01323 16.437 1.12709 16.4963 1.24876 16.4963H15.6984C16.2659 16.4963 16.8023 16.2374 17.1552 15.7931ZM16.8865 3.66284C17.0919 3.66284 17.2586 3.82935 17.2586 4.03493V5.90024C17.2586 6.10563 17.0919 6.27233 16.8865 6.27233C16.1706 6.27233 15.5383 6.09075 15.1448 5.82749C14.792 5.59159 14.6123 5.28219 14.6123 4.96759C14.6123 4.65298 14.792 4.3434 15.1448 4.10749C15.5383 3.84442 16.1706 3.66284 16.8865 3.66284ZM16.5144 4.42619C16.1249 4.46749 15.7872 4.57317 15.5583 4.7261C15.4486 4.79959 15.3565 4.86973 15.3565 4.96759C15.3565 5.06545 15.4486 5.13559 15.5583 5.20889C15.7872 5.36182 16.1249 5.46768 16.5144 5.5088V4.42619Z" fill="#27AE60"/>
<path fill-rule="evenodd" clip-rule="evenodd" d="M15.3907 7.30366L14.9468 5.74441C14.8904 5.54682 14.6849 5.43222 14.4873 5.48841L14.1215 5.59222C13.9239 5.64841 13.718 5.53343 13.662 5.33585C13.6058 5.13845 13.7208 4.9325 13.9182 4.87631C13.9182 4.87631 14.083 4.82961 14.2839 4.7725C14.8767 4.60413 15.4938 4.94794 15.6625 5.54068C15.8523 6.20748 16.1064 7.09994 16.1064 7.09994C16.1626 7.29752 16.048 7.50347 15.8504 7.55966C15.6531 7.61585 15.4469 7.50124 15.3907 7.30366ZM5.72449 15.8583H3.85603C3.65063 15.8583 3.48394 15.6914 3.48394 15.4862C3.48394 15.2808 3.65063 15.1141 3.85603 15.1141H5.72449C5.92989 15.1141 6.09659 15.2808 6.09659 15.4862C6.09659 15.6914 5.92989 15.8583 5.72449 15.8583ZM5.72449 14.7585H3.85603C3.65063 14.7585 3.48394 14.5918 3.48394 14.3865C3.48394 14.1811 3.65063 14.0144 3.85603 14.0144H5.72449C5.92989 14.0144 6.09659 14.1811 6.09659 14.3865C6.09659 14.5918 5.92989 14.7585 5.72449 14.7585Z" fill="#27AE60"/>
</svg>
